<?xml version="1.0" encoding="UTF-8" standalone="no"?>
<svg width="31px" height="18px" viewBox="0 0 31 18" version="1.1" xmlns="http://www.w3.org/2000/svg" xmlns:xlink="http://www.w3.org/1999/xlink">
    <!-- Generator: Sketch 41 (35326) - http://www.bohemiancoding.com/sketch -->
    <title>sine_wave</title>
    <desc>Created with Sketch.</desc>
    <defs>
        <path d="M7.10542736e-15,1 L8.07034661,1 C12.4884735,1 16.070073,4.59071231 16.070073,9 L16.070073,9 C16.070073,13.418278 12.4974564,17 8.06759289,17 L7.03065693,17" id="path-1"></path>
        <mask id="mask-2" maskContentUnits="userSpaceOnUse" maskUnits="objectBoundingBox" x="0" y="0" width="16.070073" height="16" fill="white">
            <use xlink:href="#path-1"></use>
        </mask>
        <path d="M14.0613139,1 L22.1316605,1 C26.5497874,1 30.1313869,4.59071231 30.1313869,9 L30.1313869,9 C30.1313869,13.418278 26.5542683,17 23.1007299,17 L23.1007299,17" id="path-3"></path>
        <mask id="mask-4" maskContentUnits="userSpaceOnUse" maskUnits="objectBoundingBox" x="0" y="0" width="16.070073" height="16" fill="white">
            <use xlink:href="#path-3"></use>
        </mask>
    </defs>
    <g id="Page-1" stroke="none" stroke-width="1" fill="none" fill-rule="evenodd">
        <g id="Desktop-HD" transform="translate(-580.000000, -228.000000)" stroke="#FFFFFF" stroke-width="4">
            <g id="Group-5" transform="translate(375.000000, 226.000000)">
                <g id="Group-2" transform="translate(205.897810, 1.000000)">
                    <g id="sine_wave" transform="translate(0.000000, 1.000000)">
                        <use id="Rectangle-3" mask="url(#mask-2)" transform="translate(8.035036, 9.000000) rotate(-90.000000) translate(-8.035036, -9.000000) " xlink:href="#path-1"></use>
                        <use id="Rectangle-3-Copy" mask="url(#mask-4)" transform="translate(22.096350, 9.000000) rotate(-270.000000) translate(-22.096350, -9.000000) " xlink:href="#path-3"></use>
                    </g>
                </g>
            </g>
        </g>
    </g>
</svg>